<svg xmlns:dc="http://purl.org/dc/elements/1.1/" xmlns:cc="http://creativecommons.org/ns#" xmlns:rdf="http://www.w3.org/1999/02/22-rdf-syntax-ns#" xmlns:svg="http://www.w3.org/2000/svg" xmlns="http://www.w3.org/2000/svg" xmlns:sodipodi="http://sodipodi.sourceforge.net/DTD/sodipodi-0.dtd" xmlns:inkscape="http://www.inkscape.org/namespaces/inkscape" id="svg7384" height="16" width="16" version="1.1" viewBox="0 0 16 16" inkscape:version="0.48.5 r10040" sodipodi:docname="usse-info-symbolic.svg">
  <defs id="defs13"/>
  <sodipodi:namedview pagecolor="#ffffff" bordercolor="#666666" borderopacity="1" objecttolerance="10" gridtolerance="10" guidetolerance="10" inkscape:pageopacity="0" inkscape:pageshadow="2" inkscape:window-width="1742" inkscape:window-height="653" id="namedview11" showgrid="true" showguides="true" inkscape:guide-bbox="true" inkscape:zoom="22.627417" inkscape:cx="8.1692605" inkscape:cy="8.1811707" inkscape:window-x="257" inkscape:window-y="280" inkscape:window-maximized="0" inkscape:current-layer="svg7384">
    <sodipodi:guide orientation="1,0" position="8,8" id="guide2990"/>
    <sodipodi:guide orientation="1,0" position="7.0047765,13.722291" id="guide2992"/>
    <sodipodi:guide orientation="1,0" position="8.9935144,12.772116" id="guide2994"/>
    <sodipodi:guide orientation="0,1" position="4.5630484,2.0108349" id="guide2996"/>
    <sodipodi:guide orientation="0,1" position="5.4137863,4.0106213" id="guide2998"/>
    <sodipodi:guide orientation="0,1" position="6.7727571,15.003922" id="guide3000"/>
    <sodipodi:guide orientation="0,1" position="7.8113202,13.015184" id="guide3002"/>
    <sodipodi:guide orientation="1,0" position="6.0104076,13.744388" id="guide3004"/>
    <sodipodi:guide orientation="1,0" position="10.00998,15.003922" id="guide3006"/>
    <inkscape:grid type="xygrid" id="grid2997"/>
  </sodipodi:namedview>
  <metadata id="metadata90">
    <rdf:RDF>
      <cc:Work rdf:about="">
        <dc:format>image/svg+xml</dc:format>
        <dc:type rdf:resource="http://purl.org/dc/dcmitype/StillImage"/>
        <dc:title>Gnome Symbolic Icon Theme</dc:title>
      </cc:Work>
    </rdf:RDF>
  </metadata>
  <title id="title9167">Gnome Symbolic Icon Theme</title>
  <path style="color:#bebebe;fill:#bebebe;fill-opacity:1;fill-rule:nonzero;stroke:#75507b;stroke-width:0;stroke-linecap:round;stroke-linejoin:round;stroke-miterlimit:4;stroke-opacity:1;stroke-dasharray:none;stroke-dashoffset:0;marker:none;visibility:visible;display:inline;overflow:visible;enable-background:accumulate" d="M 1.46875 1 L 1.46875 14 L 14.4375 14 L 14.4375 1 L 1.46875 1 z M 7.03125 2 L 9 2 C 9.559766 2 10 2.4544119 10 3 L 10 4 C 10 4.5455882 9.559766 5 9 5 L 7.03125 5 C 6.471484 5 6 4.5455882 6 4 L 6 3 C 6 2.4544119 6.471484 2 7.03125 2 z M 7 6 L 9 6 C 9.554 6 10 6.446 10 7 L 10 12 C 10 12.554 9.554 13 9 13 L 7 13 C 6.446 13 6 12.554 6 12 L 6 7 C 6 6.446 6.446 6 7 6 z " id="rect3032"/>
</svg>