<svg xmlns:dc="http://purl.org/dc/elements/1.1/" xmlns:cc="http://creativecommons.org/ns#" xmlns:rdf="http://www.w3.org/1999/02/22-rdf-syntax-ns#" xmlns:svg="http://www.w3.org/2000/svg" xmlns="http://www.w3.org/2000/svg" xmlns:sodipodi="http://sodipodi.sourceforge.net/DTD/sodipodi-0.dtd" xmlns:inkscape="http://www.inkscape.org/namespaces/inkscape" id="svg7384" height="16" width="16" version="1.1" viewBox="0 0 16 16" inkscape:version="0.48.5 r10040" sodipodi:docname="usse-comment-symbolic.svg">
  <defs id="defs13">
    <filter id="filter3825" inkscape:menu="Color" height="1" width="1" color-interpolation-filters="sRGB" y="0" x="0" inkscape:menu-tooltip="Render in shades of gray by reducing saturation to zero" inkscape:label="Desaturate">
      <feColorMatrix id="feColorMatrix3827" values="0" type="saturate"/>
    </filter>
  </defs>
  <sodipodi:namedview pagecolor="#ffffff" bordercolor="#666666" borderopacity="1" objecttolerance="10" gridtolerance="10" guidetolerance="10" inkscape:pageopacity="0" inkscape:pageshadow="2" inkscape:window-width="2560" inkscape:window-height="1080" id="namedview11" showgrid="true" showguides="true" inkscape:guide-bbox="true" inkscape:zoom="11.313709" inkscape:cx="-15.503948" inkscape:cy="17.407825" inkscape:window-x="0" inkscape:window-y="0" inkscape:window-maximized="0" inkscape:current-layer="svg7384" inkscape:object-nodes="false" inkscape:object-paths="false">
    <sodipodi:guide orientation="1,0" position="8,14" id="guide2990"/>
    <sodipodi:guide orientation="1,0" position="7.0047765,13.722291" id="guide2992"/>
    <sodipodi:guide orientation="1,0" position="8.9935144,12.772116" id="guide2994"/>
    <sodipodi:guide orientation="0,1" position="4.5630484,2.0108349" id="guide2996"/>
    <sodipodi:guide orientation="0,1" position="5.4137863,4.0106213" id="guide2998"/>
    <sodipodi:guide orientation="0,1" position="6.7727571,15.003922" id="guide3000"/>
    <sodipodi:guide orientation="0,1" position="-11.544416,12.397429" id="guide3002"/>
    <sodipodi:guide orientation="1,0" position="6.0104076,13.744388" id="guide3004"/>
    <sodipodi:guide orientation="1,0" position="10.00998,15.003922" id="guide3006"/>
    <sodipodi:guide orientation="1,0" position="-14.039196,5.174443" id="guide3019"/>
    <sodipodi:guide orientation="0,1" position="8.375,14" id="guide3021"/>
    <sodipodi:guide orientation="1,0" position="-12.518569,8.928676" id="guide3023"/>
    <inkscape:grid type="xygrid" id="grid3025"/>
  </sodipodi:namedview>
  <metadata id="metadata90">
    <rdf:RDF>
      <cc:Work rdf:about="">
        <dc:format>image/svg+xml</dc:format>
        <dc:type rdf:resource="http://purl.org/dc/dcmitype/StillImage"/>
        <dc:title>Gnome Symbolic Icon Theme</dc:title>
      </cc:Work>
    </rdf:RDF>
  </metadata>
  <title id="title9167">Gnome Symbolic Icon Theme</title>
  <path style="font-size:medium;font-style:normal;font-variant:normal;font-weight:normal;font-stretch:normal;text-indent:0;text-align:start;text-decoration:none;line-height:normal;letter-spacing:normal;word-spacing:normal;text-transform:none;direction:ltr;block-progression:tb;writing-mode:lr-tb;text-anchor:start;baseline-shift:baseline;color:#bebebe;fill:#bebebe;fill-opacity:1;stroke:none;stroke-width:2;marker:none;visibility:visible;display:inline;overflow:visible;enable-background:accumulate;font-family:Sans;-inkscape-font-specification:Sans" d="M 4,2 C 2.3552972,2 1,3.3552972 1,5 L 1,8 C 1,9.0645856 1.5734486,10.000574 2.4220273,10.531006 2.8693399,10.817145 2.8604808,10.837381 3,11.4375 L 3,13 c -0.00566,0.738059 0.7341582,1.297514 1.59375,0.8125 L 8.34375,11 12,11 c 1.644703,0 3,-1.3552972 3,-3 L 15,5 C 15,3.3552972 13.644703,2 12,2 z m 0,2 8,0 c 0.571297,0 1,0.4287028 1,1 l 0,3 c 0,0.5712972 -0.428703,1 -1,1 L 8,9 C 7.7889953,8.9981748 7.5779386,9.0648243 7.40625,9.1875 L 5,11 5,10 C 5.0094541,9.7346082 4.9035475,9.4701262 4.7104656,9.2895173 4.5010198,9.0936016 4.4336451,9.0534026 4,9 3.5663549,8.9465974 3,8.5267162 3,8 L 3,5 C 3,4.4287028 3.4287028,4 4,4 z" id="rect3027" inkscape:connector-curvature="0" sodipodi:nodetypes="ssscccccssssssssscccccszsss"/>
</svg>