<svg xmlns:dc="http://purl.org/dc/elements/1.1/" xmlns:cc="http://creativecommons.org/ns#" xmlns:rdf="http://www.w3.org/1999/02/22-rdf-syntax-ns#" xmlns:svg="http://www.w3.org/2000/svg" xmlns="http://www.w3.org/2000/svg" xmlns:sodipodi="http://sodipodi.sourceforge.net/DTD/sodipodi-0.dtd" xmlns:inkscape="http://www.inkscape.org/namespaces/inkscape" id="svg7384" height="16" width="16" version="1.1" inkscape:version="0.48.5 r10040" sodipodi:docname="usse-login-symbolic.svg" viewBox="0 0 16 16">
  <defs id="defs11"/>
  <sodipodi:namedview pagecolor="#ffffff" bordercolor="#666666" borderopacity="1" objecttolerance="10" gridtolerance="10" guidetolerance="10" inkscape:pageopacity="0" inkscape:pageshadow="2" inkscape:window-width="2398" inkscape:window-height="1018" id="namedview9" showgrid="true" inkscape:object-nodes="true" inkscape:snap-page="true" inkscape:zoom="11.313709" inkscape:cx="-28.67491" inkscape:cy="8.6477345" inkscape:window-x="0" inkscape:window-y="27" inkscape:window-maximized="1" inkscape:current-layer="svg7384">
    <inkscape:grid type="xygrid" id="grid2984"/>
  </sodipodi:namedview>
  <metadata id="metadata90">
    <rdf:RDF>
      <cc:Work rdf:about="">
        <dc:format>image/svg+xml</dc:format>
        <dc:type rdf:resource="http://purl.org/dc/dcmitype/StillImage"/>
        <dc:title>Gnome Symbolic Icon Theme</dc:title>
      </cc:Work>
    </rdf:RDF>
  </metadata>
  <title id="title9167">Gnome Symbolic Icon Theme</title>
  <path style="color:#bebebe;fill:#bebebe" d="m 10,1 0,3 1,0 c 1,0 1,1 1,1 l 0,6 c 0,0 0,1 -1,1 l -1,0 0,3 1,0 c 4,0 4,-4 4,-4 l 0,-6 c 0,0 0,-4 -4,-4 l -1,0 z" id="rect7356" inkscape:connector-curvature="0"/>
  <g id="g3890" transform="matrix(0,1,-1,0,1,30.45088)">
    <path d="m -18.45088,-4 -10e-6,-1 c -3e-5,-0.26531 -0.0931,-0.53058 -0.28124,-0.71876 l -3,-3 -0.281,-0.28 h -0.87499 l -0.28126,0.28126 -3,3 c -0.18821,0.18818 -0.28121,0.45347 -0.28121,0.71876 l -1e-5,1 h 1 c 0.26531,4e-5 0.53059,-0.0931 0.71877,-0.28121 l 2.2812,-2.2813 2.2812,2.2812 c 0.18817,0.18815 0.45345,0.28125 0.71875,0.28125 h 1 z" style="text-indent:0;text-transform:none;block-progression:tb;color:#000000;fill:#bebebe" id="path3613-6-6-9" inkscape:connector-curvature="0"/>
    <path d="m -23.45088,-7 v 7 h 2 v -7 h -2 z" style="text-indent:0;text-transform:none;block-progression:tb;color:#000000;fill:#bebebe" id="path35770-1" inkscape:connector-curvature="0"/>
  </g>
</svg>